<svg width="142" height="142" viewBox="0 0 142 142" fill="none" xmlns="http://www.w3.org/2000/svg">
<circle cx="71.0602" cy="70.8104" r="70.6549" fill="#D7A55D"/>
<path d="M97.2299 54.3413H95.8062V52.9177C95.8062 49.5663 93.0799 46.8398 89.7285 46.8398H46.1018C42.7504 46.8398 40.0239 49.5664 40.0239 52.9177V81.4728C40.0239 84.824 42.7505 87.5506 46.1018 87.5506H47.5254V88.9742C47.5254 92.3256 50.2519 95.052 53.6032 95.052H97.2297C100.581 95.052 103.308 92.3256 103.308 88.9742V60.4191C103.308 57.0677 100.581 54.3413 97.2299 54.3413ZM98.8292 88.9741C98.8292 89.8574 98.1131 90.5735 97.2298 90.5735H53.6032C52.7199 90.5735 52.0038 89.8574 52.0038 88.9741V87.5505V85.3113V83.0721V60.4191C52.0038 59.5357 52.7199 58.8197 53.6032 58.8197H91.3278H93.567H95.8062H97.2299C98.1132 58.8197 98.8293 59.5358 98.8293 60.4191V88.9741H98.8292ZM44.5023 81.4727V52.9177C44.5023 52.0343 45.2184 51.3183 46.1018 51.3183H89.7285C90.6117 51.3183 91.3278 52.0343 91.3278 52.9177V54.3413H53.6032C50.2519 54.3413 47.5254 57.0678 47.5254 60.4191V83.0721H46.1019C45.2184 83.0721 44.5023 82.356 44.5023 81.4727Z" fill="white"/>
<path d="M97.23 95.1043H53.6034C50.2232 95.1043 47.4733 92.3543 47.4733 88.9742V87.6029H46.102C42.7219 87.6029 39.9719 84.8529 39.9719 81.4727V52.9178C39.9719 49.5376 42.7219 46.7877 46.102 46.7877H89.7288C93.1088 46.7877 95.8588 49.5376 95.8588 52.9178V54.2891H97.2302C100.61 54.2891 103.36 57.0391 103.36 60.4192V88.9742C103.36 92.3543 100.61 95.1043 97.23 95.1043ZM46.102 46.8921C42.7795 46.8921 40.0765 49.5952 40.0765 52.9178V81.4728C40.0765 84.7953 42.7795 87.4984 46.102 87.4984H47.5779V88.9743C47.5779 92.2967 50.2809 94.9999 53.6035 94.9999H97.23C100.553 94.9999 103.256 92.2968 103.256 88.9743V60.4192C103.256 57.0967 100.553 54.3936 97.2302 54.3936H95.7542V52.9178C95.7542 49.5952 93.0513 46.8922 89.7288 46.8922H46.102V46.8921ZM97.2302 90.6259H53.6035C52.6927 90.6259 51.9518 89.8849 51.9518 88.9742V60.4192C51.9518 59.5085 52.6927 58.7675 53.6035 58.7675H97.2302C98.141 58.7675 98.8818 59.5085 98.8818 60.4192V88.9742C98.8817 89.8849 98.1408 90.6259 97.2302 90.6259ZM53.6035 58.872C52.7503 58.872 52.0563 59.5662 52.0563 60.4192V88.9742C52.0563 89.8273 52.7503 90.5213 53.6035 90.5213H97.2302C98.0832 90.5213 98.7773 89.8273 98.7773 88.9742V60.4192C98.7773 59.5661 98.0832 58.872 97.2302 58.872H53.6035ZM47.5779 83.1244H46.1021C45.1914 83.1244 44.4503 82.3835 44.4503 81.4727V52.9178C44.4503 52.007 45.1913 51.2661 46.102 51.2661H89.7288C90.6395 51.2661 91.3804 52.007 91.3804 52.9178V54.3936H53.6035C50.2809 54.3936 47.5779 57.0967 47.5779 60.4192V83.1244ZM46.102 51.3705C45.2489 51.3705 44.5549 52.0645 44.5549 52.9177V81.4727C44.5549 82.3258 45.249 83.0199 46.1021 83.0199H47.4735V60.4192C47.4735 57.0391 50.2234 54.2891 53.6036 54.2891H91.2759V52.9178C91.2759 52.0646 90.5819 51.3706 89.7289 51.3706H46.102V51.3705Z" fill="white"/>
<path d="M92.4536 83.9418L90.9801 82.4681L83.8451 75.3332C83.2205 74.7085 82.2078 74.7085 81.5832 75.3332L77.5289 79.3874L69.9551 71.8135C69.3304 71.1888 68.3177 71.1888 67.6932 71.8135L56.4345 83.0722L55.5648 83.9418C55.1916 84.315 55.0416 84.8266 55.1142 85.3114C55.1632 85.6379 55.3133 85.9524 55.5648 86.2038L56.4697 87.1086C56.7081 87.347 57.0032 87.4941 57.3116 87.5506C57.5026 87.5855 57.6986 87.5855 57.8895 87.5506C58.198 87.4942 58.4931 87.3471 58.7315 87.1086L60.5288 85.3114L62.768 83.0722L67.6931 78.147C68.3177 77.5223 69.3304 77.5223 69.955 78.147L74.8799 83.0722L77.1191 85.3114L78.9165 87.1086C79.1549 87.347 79.45 87.4941 79.7585 87.5506C79.9494 87.5855 80.1454 87.5855 80.3363 87.5506C80.6448 87.4942 80.9398 87.3471 81.1784 87.1086L82.0832 86.2038C82.3346 85.9523 82.4847 85.6379 82.5337 85.3114C82.6063 84.8266 82.4565 84.3151 82.0832 83.9418L81.2135 83.0722L80.6957 82.5543L82.714 80.5357L85.2505 83.0722L87.4897 85.3114L89.2868 87.1086C89.5122 87.3338 89.7883 87.4775 90.0782 87.5402C90.4582 87.6225 90.862 87.5652 91.2084 87.3681C91.3303 87.2987 91.445 87.2126 91.549 87.1087L92.4536 86.2039C93.0402 85.6174 93.0759 84.6888 92.5612 84.0606C92.5275 84.0197 92.4918 83.9801 92.4536 83.9418Z" fill="white"/>
<path d="M80.0476 87.6291C79.9477 87.6291 79.8474 87.6199 79.7492 87.602C79.4184 87.5416 79.1178 87.3837 78.8797 87.1456L69.918 78.1839C69.6258 77.8917 69.2373 77.7308 68.824 77.7308C68.4108 77.7308 68.0222 77.8917 67.73 78.1839L58.7685 87.1456C58.5305 87.3837 58.2297 87.5416 57.899 87.602C57.7028 87.6377 57.4986 87.6377 57.3023 87.602C56.9715 87.5416 56.6709 87.3837 56.4327 87.1456L55.5278 86.2408C55.2762 85.9893 55.1153 85.6705 55.0625 85.3192C54.9851 84.8026 55.159 84.2738 55.5278 83.905L67.6562 71.7767C67.9682 71.4648 68.383 71.2929 68.8241 71.2929C69.2653 71.2929 69.6801 71.4648 69.992 71.7767L77.529 79.3137L81.5464 75.2964C81.8584 74.9845 82.2731 74.8126 82.7143 74.8126C83.1556 74.8126 83.5703 74.9845 83.8822 75.2964L92.4907 83.905C92.5288 83.9431 92.5662 83.9842 92.6017 84.0273C93.1417 84.6863 93.0939 85.6378 92.4907 86.2409L91.586 87.1457C91.4817 87.25 91.3634 87.3401 91.2344 87.4136C90.9869 87.5545 90.7049 87.629 90.4186 87.629C90.4185 87.629 90.4185 87.629 90.4185 87.629C90.3005 87.629 90.1824 87.6164 90.0674 87.5914C89.7574 87.5244 89.4748 87.3703 89.2501 87.1457L82.7143 80.6099L80.7699 82.5545L82.1205 83.9051C82.4892 84.2738 82.6631 84.8026 82.5856 85.3193C82.5329 85.6704 82.3722 85.9891 82.1205 86.2409L81.2157 87.1457C80.9775 87.3838 80.6769 87.5417 80.3461 87.6021C80.2477 87.6199 80.1474 87.6291 80.0476 87.6291ZM68.8241 77.6262C69.2653 77.6262 69.6801 77.7981 69.992 78.11L78.9537 87.0717C79.1767 87.2947 79.4584 87.4426 79.7681 87.4991C79.9519 87.5328 80.1434 87.5328 80.3272 87.4991C80.6369 87.4426 80.9186 87.2947 81.1416 87.0717L82.0465 86.1669C82.2822 85.9311 82.4328 85.6326 82.4822 85.3036C82.5548 84.8195 82.3919 84.3243 82.0465 83.9788L80.622 82.5543L82.7142 80.4618L89.324 87.0717C89.5346 87.2821 89.7992 87.4265 90.0895 87.4892C90.4593 87.5691 90.8555 87.5088 91.1827 87.3227C91.3036 87.2539 91.4145 87.1693 91.5121 87.0717L92.4168 86.1669C92.9817 85.6021 93.0265 84.7107 92.5209 84.0936C92.4876 84.0532 92.4526 84.0146 92.4168 83.9788L83.8083 75.3702C83.5161 75.0779 83.1276 74.917 82.7143 74.917C82.3011 74.917 81.9125 75.0779 81.6203 75.3702L77.529 79.4614L69.9181 71.8505C69.6259 71.5582 69.2374 71.3973 68.8241 71.3973C68.4109 71.3973 68.0224 71.5582 67.7302 71.8505L55.6019 83.9788C55.2564 84.3243 55.0935 84.8196 55.1661 85.3036C55.2155 85.6327 55.3662 85.9313 55.6019 86.1669L56.5067 87.0717C56.7298 87.2947 57.0114 87.4426 57.3212 87.4991C57.5052 87.5328 57.6965 87.5328 57.8804 87.4991C58.1901 87.4426 58.4718 87.2947 58.6948 87.0717L67.6563 78.11C67.9682 77.7981 68.383 77.6262 68.8241 77.6262Z" fill="white"/>
<path d="M91.3281 61.6195C90.6307 61.3454 89.8715 61.1948 89.0782 61.1948C85.6754 61.1948 82.907 63.9631 82.907 67.3659C82.907 70.7687 85.6754 73.5369 89.0782 73.5369C89.8716 73.5369 90.6308 73.3863 91.3281 73.1122C92.1841 72.7758 92.947 72.2535 93.5673 71.5954C94.6095 70.49 95.2492 69.0013 95.2492 67.3659C95.2492 65.7305 94.6095 64.2417 93.5673 63.1363C92.947 62.4782 92.184 61.9558 91.3281 61.6195ZM89.0779 69.0585C88.1432 69.0585 87.3853 68.3006 87.3853 67.3659C87.3853 66.4311 88.1432 65.6733 89.0779 65.6733C90.0127 65.6733 90.7706 66.4312 90.7706 67.3659C90.7707 68.3006 90.0128 69.0585 89.0779 69.0585Z" fill="white"/>
<path d="M89.0782 73.589C85.6465 73.589 82.8547 70.7973 82.8547 67.3657C82.8547 63.9341 85.6465 61.1423 89.0782 61.1423C89.8603 61.1423 90.6239 61.2865 91.3473 61.5707C92.1955 61.904 92.9764 62.433 93.6055 63.1003C94.6992 64.2605 95.3016 65.7752 95.3016 67.3657C95.3016 68.9561 94.6992 70.4709 93.6055 71.6311C92.9766 72.2983 92.1958 72.8272 91.3473 73.1608C90.624 73.4449 89.8607 73.589 89.0782 73.589ZM89.0782 61.2469C85.7042 61.2469 82.9593 63.9917 82.9593 67.3657C82.9593 70.7397 85.7042 73.4845 89.0782 73.4845C89.8474 73.4845 90.598 73.3429 91.3091 73.0633C92.1433 72.7355 92.911 72.2155 93.5293 71.5593C94.6047 70.4186 95.1969 68.9294 95.1969 67.3657C95.1969 65.802 94.6047 64.3127 93.5293 63.172C92.9109 62.5159 92.143 61.9958 91.3091 61.6681C90.5979 61.3886 89.8474 61.2469 89.0782 61.2469ZM89.078 69.1107C88.1158 69.1107 87.3331 68.328 87.3331 67.3658C87.3331 66.4036 88.1158 65.621 89.078 65.621C90.0403 65.621 90.823 66.4037 90.823 67.3658C90.8231 68.328 90.0403 69.1107 89.078 69.1107ZM89.078 65.7254C88.1735 65.7254 87.4377 66.4612 87.4377 67.3657C87.4377 68.2703 88.1735 69.0061 89.078 69.0061C89.9826 69.0061 90.7185 68.2702 90.7185 67.3657C90.7186 66.4612 89.9827 65.7254 89.078 65.7254Z" fill="white"/>
</svg>
