<svg width="142" height="142" viewBox="0 0 142 142" fill="none" xmlns="http://www.w3.org/2000/svg">
<circle cx="71.2013" cy="70.8104" r="70.6549" fill="#D7A55D"/>
<path d="M98.8029 54.0528C97.6202 52.8138 95.9869 52.0817 94.1284 52.0817H84.7794V51.969C84.7794 50.561 84.2162 49.2094 83.2588 48.3083C82.3014 47.3509 81.006 46.7877 79.598 46.7877H62.7023C61.238 46.7877 59.9426 47.3509 58.9852 48.3083C58.0278 49.2657 57.4646 50.561 57.4646 51.969V52.0817H48.1719C46.3134 52.0817 44.6801 52.8138 43.4974 54.0528C42.3147 55.2355 41.5262 56.9251 41.5262 58.7273V86.7743C41.5262 88.6328 42.2584 90.2661 43.4974 91.4488C44.6801 92.6315 46.3697 93.42 48.1719 93.42H94.1284C95.9869 93.42 97.6202 92.6878 98.8029 91.4488C99.9856 90.2661 100.774 88.5765 100.774 86.7743V58.7273C100.774 56.8688 100.042 55.2355 98.8029 54.0528ZM97.8455 86.7743H97.7892C97.7892 87.7881 97.3949 88.6892 96.7191 89.365C96.0433 90.0408 95.1421 90.4351 94.1284 90.4351H48.1719C47.1582 90.4351 46.2571 90.0408 45.5812 89.365C44.9054 88.6892 44.5112 87.7881 44.5112 86.7743V58.7273C44.5112 57.7136 44.9054 56.8125 45.5812 56.1367C46.2571 55.4608 47.1582 55.0666 48.1719 55.0666H59.0415C59.8863 55.0666 60.5621 54.3908 60.5621 53.546V51.9127C60.5621 51.2932 60.7874 50.73 61.1817 50.3358C61.5759 49.9415 62.1391 49.7163 62.7586 49.7163H79.598C80.2176 49.7163 80.7807 49.9415 81.175 50.3358C81.5692 50.73 81.7945 51.2932 81.7945 51.9127V53.546C81.7945 54.3908 82.4703 55.0666 83.3151 55.0666H94.1847C95.1985 55.0666 96.0996 55.4608 96.7754 56.1367C97.4512 56.8125 97.8455 57.7136 97.8455 58.7273V86.7743Z" fill="white"/>
<path d="M71.1502 58.8963C67.3205 58.8963 63.8287 60.4732 61.3506 62.9513C58.8163 65.4857 57.2957 68.9211 57.2957 72.7508C57.2957 76.5805 58.8726 80.0723 61.3506 82.5504C63.885 85.0847 67.3205 86.6054 71.1502 86.6054C74.9799 86.6054 78.4717 85.0284 80.9497 82.5504C83.4841 80.016 85.0047 76.5805 85.0047 72.7508C85.0047 68.9211 83.4278 65.4293 80.9497 62.9513C78.4717 60.4732 74.9799 58.8963 71.1502 58.8963ZM78.8096 80.4666C76.8384 82.3814 74.1351 83.6204 71.1502 83.6204C68.1653 83.6204 65.4619 82.3814 63.4908 80.4666C61.5196 78.4954 60.3369 75.7921 60.3369 72.8071C60.3369 69.8222 61.5759 67.1189 63.4908 65.1477C65.4619 63.1766 68.1653 61.9939 71.1502 61.9939C74.1351 61.9939 76.8384 63.2329 78.8096 65.1477C80.7808 67.1189 81.9635 69.8222 81.9635 72.8071C82.0198 75.7921 80.7808 78.4954 78.8096 80.4666Z" fill="white"/>
<path d="M91.1998 64.3592C92.7239 64.3592 93.9595 63.1237 93.9595 61.5995C93.9595 60.0754 92.7239 58.8399 91.1998 58.8399C89.6757 58.8399 88.4402 60.0754 88.4402 61.5995C88.4402 63.1237 89.6757 64.3592 91.1998 64.3592Z" fill="white"/>
</svg>
