<svg width="142" height="142" viewBox="0 0 142 142" fill="none" xmlns="http://www.w3.org/2000/svg">
<circle cx="70.9896" cy="70.8104" r="70.6549" fill="#D7A55D"/>
<path d="M70.9898 37.4C64.4412 37.4 59.1133 42.7279 59.1133 49.2765V72.6182C59.1133 79.1661 64.4412 84.494 70.9898 84.494C77.5385 84.494 82.8664 79.2031 82.8664 72.6998V49.2765C82.8664 42.7279 77.5385 37.4 70.9898 37.4ZM77.917 72.6991C77.917 76.4733 74.8093 79.5446 70.9898 79.5446C67.1704 79.5446 64.0618 76.4377 64.0618 72.6174V49.2765C64.0618 45.4563 67.1696 42.3485 70.9898 42.3485C74.8101 42.3485 77.9178 45.4563 77.917 49.2765V72.6991Z" fill="white"/>
<path d="M73.4639 91.5869H68.5154V102.721H73.4639V91.5869Z" fill="white"/>
<path d="M77.5054 100.247H64.474C63.1074 100.247 61.9998 101.355 61.9998 102.721C61.9998 104.088 63.1074 105.196 64.474 105.196H77.5054C78.872 105.196 79.9796 104.088 79.9796 102.721C79.9796 101.355 78.872 100.247 77.5054 100.247Z" fill="white"/>
<path d="M89.7119 68.4935C88.3452 68.4935 87.2376 69.6012 87.2376 70.9678V72.9473C87.2376 81.9058 79.9484 89.1952 70.9897 89.1952C62.0303 89.1952 54.7418 81.9059 54.7418 72.9473V70.9678C54.7418 69.6012 53.6341 68.4935 52.2675 68.4935C50.9009 68.4935 49.7932 69.6012 49.7932 70.9678V72.9473C49.7932 84.635 59.302 94.1437 70.9897 94.1437C82.6774 94.1437 92.1862 84.635 92.1862 72.9473V70.9678C92.1862 69.6013 91.0785 68.4935 89.7119 68.4935Z" fill="white"/>
</svg>
