<svg width="142" height="142" viewBox="0 0 142 142" fill="none" xmlns="http://www.w3.org/2000/svg">
<circle cx="71.1307" cy="70.8104" r="70.6549" fill="#D7A55D"/>
<path fill-rule="evenodd" clip-rule="evenodd" d="M94.0871 65.9989H57.7087L92.6505 55.8768C92.9221 55.7981 93.1512 55.6144 93.2878 55.367C93.4244 55.1191 93.4569 54.8276 93.3782 54.556L91.5497 48.2437C90.8191 45.7226 88.4716 43.9615 85.8409 43.9615C85.2866 43.9615 84.7343 44.0403 84.1986 44.1952L51.3919 53.6988C49.8745 54.1382 48.617 55.147 47.8502 56.5386C47.0839 57.9302 46.9039 59.5325 47.3433 61.0495L49.1298 67.2164V92.6208C49.1298 95.893 51.7917 98.5549 55.0634 98.5549H67.8763C68.4652 98.5549 68.9425 98.0776 68.9425 97.4886C68.9425 96.8997 68.4652 96.4224 67.8763 96.4224H55.0639C52.9675 96.4224 51.2623 94.7172 51.2623 92.6208V78.1103H56.7249H56.7274H56.7295H65.0798H65.0823H65.0848H73.4351H73.4376H73.4401H81.7903H81.7928H81.7949H93.0208V92.6208C93.0208 94.7172 91.3156 96.4224 89.2193 96.4224H76.4065C75.8179 96.4224 75.3402 96.8997 75.3402 97.4886C75.3402 98.0776 75.8179 98.5549 76.4065 98.5549H89.2193C92.4914 98.5549 95.1534 95.893 95.1534 92.6208V67.0652C95.1534 66.4762 94.676 65.9989 94.0871 65.9989ZM75.2852 75.9778L79.8156 68.1315H85.7081L81.1781 75.9778H75.2852ZM66.9299 75.9778L71.4604 68.1315H77.3528L72.8228 75.9778H66.9299ZM58.5751 75.9778L63.1051 68.1315H68.9979L64.4675 75.9778H58.5751ZM62.5395 62.1741L54.9531 54.8876L60.6372 53.2411C60.6772 53.2994 60.7239 53.3544 60.7772 53.4056L68.3636 60.6921L62.6794 62.3386C62.6394 62.2803 62.5924 62.2249 62.5395 62.1741ZM76.8276 48.756L84.414 56.0425L78.7298 57.689C78.6898 57.6307 78.6432 57.5753 78.5898 57.5245L71.0034 50.238L76.6876 48.5915C76.7276 48.6498 76.7743 48.7048 76.8276 48.756ZM68.8022 51.081L76.3886 58.3671L70.7044 60.014C70.6644 59.9557 70.6178 59.9003 70.5644 59.8495L62.978 52.563L68.6622 50.9165C68.7026 50.9744 68.7493 51.0298 68.8022 51.081ZM84.7922 46.2436C85.1345 46.1445 85.4873 46.0941 85.8409 46.0941C87.5282 46.0941 89.0331 47.222 89.5013 48.8373L91.0332 54.1249L86.7552 55.364C86.7148 55.3057 86.6681 55.2508 86.6148 55.1995L79.0288 47.9134L84.7922 46.2436ZM49.7183 57.5674C50.2098 56.6748 51.0149 56.0284 51.9854 55.7472L52.6118 55.5656C52.6522 55.624 52.6989 55.6793 52.7518 55.7302L60.3382 63.0167L50.9237 65.744L49.3918 60.4564C49.1106 59.4863 49.2268 58.4604 49.7183 57.5674ZM51.2623 68.1315H60.6426L56.1126 75.9778H51.2623V68.1315ZM83.6405 75.9778L88.1705 68.1315H93.0208V75.9778H83.6405Z" fill="white"/>
<path fill-rule="evenodd" clip-rule="evenodd" d="M79.5145 87.1579C79.5145 86.7768 79.3113 86.4248 78.9814 86.2345L69.6136 80.826C69.2837 80.6357 68.8772 80.6357 68.5473 80.826C68.2174 81.0164 68.0142 81.3684 68.0142 81.7495V92.5663C68.0142 92.947 68.2174 93.299 68.5473 93.4893C68.7122 93.5847 68.8963 93.6326 69.0804 93.6326C69.2645 93.6326 69.4486 93.5847 69.6136 93.4893L78.9814 88.0813C79.3113 87.891 79.5145 87.539 79.5145 87.1579ZM70.1467 90.7195V83.5963L76.3157 87.1579L70.1467 90.7195Z" fill="white"/>
<path fill-rule="evenodd" clip-rule="evenodd" d="M72.1412 96.4222C71.5539 96.4222 71.075 96.9012 71.075 97.4885C71.075 98.0758 71.5539 98.5548 72.1412 98.5548C72.7289 98.5548 73.2075 98.0758 73.2075 97.4885C73.2075 96.9012 72.7289 96.4222 72.1412 96.4222Z" fill="white"/>
</svg>
